<svg xmlns="http://www.w3.org/2000/svg" width="1600" height="900" viewBox="0 0 1600 900" role="img" aria-label="Illustration démolition Accélérationnisme - autoroute nocturne saturée">
  <defs>
    <linearGradient id="skyAD" x1="0" y1="0" x2="0" y2="1">
      <stop offset="0%" stop-color="#251f45"/>
      <stop offset="48%" stop-color="#273963"/>
      <stop offset="100%" stop-color="#335c8f"/>
    </linearGradient>
    <linearGradient id="moonAD" x1="0" y1="0" x2="0" y2="1">
      <stop offset="0%" stop-color="#e8f9ff"/>
      <stop offset="100%" stop-color="#8cc3ef"/>
    </linearGradient>
  </defs>

  <rect width="1600" height="900" fill="url(#skyAD)"/>
  <circle cx="1040" cy="225" r="165" fill="url(#moonAD)"/>

  <g opacity="0.42">
    <rect x="0" y="185" width="1600" height="18" fill="#9bc8ee"/>
    <rect x="0" y="235" width="1600" height="16" fill="#84aed6"/>
    <rect x="0" y="285" width="1600" height="14" fill="#7095bf"/>
  </g>

  <polygon points="0,900 0,620 470,420 980,420 1600,620 1600,900" fill="#123153"/>
  <polygon points="0,900 0,690 500,520 990,520 1600,690 1600,900" fill="#1b426b"/>

  <polygon points="520,900 700,540 840,540 950,900" fill="#0d2745"/>
  <polygon points="700,900 780,600 840,600 900,900" fill="#1c436d"/>

  <rect x="720" y="350" width="75" height="240" fill="#102f4e"/>
  <polygon points="757,240 825,360 689,360" fill="#315985"/>
  <rect x="736" y="415" width="44" height="110" fill="#a8d7ff"/>

  <polygon points="1080,900 980,560 1140,560 1330,900" fill="#204873"/>
  <polygon points="180,900 320,560 460,560 430,900" fill="#204873"/>
  <rect x="1040" y="630" width="100" height="180" fill="#163a60"/>
  <rect x="300" y="630" width="100" height="180" fill="#163a60"/>

  <line x1="500" y1="710" x2="1010" y2="710" stroke="#afd9ff" stroke-width="8"/>
  <line x1="600" y1="775" x2="910" y2="775" stroke="#afd9ff" stroke-width="6" opacity="0.75"/>
  <ellipse cx="770" cy="845" rx="250" ry="30" fill="#9ccaf0" opacity="0.58"/>
</svg>
