<svg xmlns="http://www.w3.org/2000/svg" width="1600" height="900" viewBox="0 0 1600 900" role="img" aria-label="Illustration éloge Accélérationnisme">
  <defs>
    <linearGradient id="bgWarmAcc" x1="0" y1="0" x2="0" y2="1">
      <stop offset="0%" stop-color="#f8dcb2"/>
      <stop offset="100%" stop-color="#f19773"/>
    </linearGradient>
    <linearGradient id="sunWarmAcc" x1="0" y1="0" x2="0" y2="1">
      <stop offset="0%" stop-color="#ffb276"/>
      <stop offset="100%" stop-color="#ef655f"/>
    </linearGradient>
  </defs>

  <rect width="1600" height="900" fill="url(#bgWarmAcc)"/>
  <circle cx="790" cy="380" r="290" fill="url(#sunWarmAcc)"/>

  <polygon points="770,210 860,370 800,370 800,560 740,560 740,370 680,370" fill="#1f3f63"/>
  <polygon points="760,180 790,120 820,180" fill="#2f5682"/>
  <rect x="760" y="560" width="40" height="150" fill="#1f3f63"/>

  <polygon points="440,700 620,470 620,700" fill="#355e8e"/>
  <polygon points="980,700 980,470 1160,700" fill="#274b72"/>
  <rect x="600" y="650" width="400" height="70" fill="#17334f"/>

  <line x1="300" y1="720" x2="1300" y2="720" stroke="#f8cf98" stroke-width="10" opacity="0.8"/>
  <line x1="360" y1="765" x2="1240" y2="765" stroke="#f8cf98" stroke-width="8" opacity="0.65"/>
  <ellipse cx="800" cy="820" rx="350" ry="30" fill="#f8d8ae" opacity="0.8"/>
</svg>
