<svg xmlns="http://www.w3.org/2000/svg" width="1600" height="900" viewBox="0 0 1600 900" role="img" aria-label="Illustration éloge Accélérationnisme - corridor technologique">
  <defs>
    <linearGradient id="skyAE" x1="0" y1="0" x2="0" y2="1">
      <stop offset="0%" stop-color="#f7dfb9"/>
      <stop offset="48%" stop-color="#f0b486"/>
      <stop offset="100%" stop-color="#df8669"/>
    </linearGradient>
    <linearGradient id="sunAE" x1="0" y1="0" x2="0" y2="1">
      <stop offset="0%" stop-color="#ffc37b"/>
      <stop offset="100%" stop-color="#eb7066"/>
    </linearGradient>
  </defs>

  <rect width="1600" height="900" fill="url(#skyAE)"/>
  <circle cx="800" cy="255" r="170" fill="url(#sunAE)"/>

  <g opacity="0.36">
    <rect x="0" y="190" width="1600" height="22" fill="#f5c28d"/>
    <rect x="0" y="242" width="1600" height="18" fill="#ee9e73"/>
    <rect x="0" y="294" width="1600" height="16" fill="#e6806c"/>
  </g>

  <polygon points="0,900 0,610 530,420 1070,420 1600,610 1600,900" fill="#173b60"/>
  <polygon points="0,900 0,675 540,500 1060,500 1600,675 1600,900" fill="#224b73"/>

  <polygon points="580,900 730,520 870,520 1020,900" fill="#102c4a"/>
  <polygon points="650,900 760,580 840,580 950,900" fill="#1d4269"/>

  <rect x="760" y="305" width="80" height="280" fill="#0f2d4a"/>
  <polygon points="800,210 875,350 725,350" fill="#284f79"/>
  <rect x="778" y="380" width="44" height="120" fill="#f4c493"/>

  <g>
    <polygon points="260,900 430,560 560,560 470,900" fill="#2f5784"/>
    <polygon points="1140,900 1040,560 1170,560 1340,900" fill="#2f5784"/>
    <rect x="360" y="620" width="90" height="180" fill="#163a5d"/>
    <rect x="1150" y="620" width="90" height="180" fill="#163a5d"/>
  </g>

  <line x1="540" y1="700" x2="1060" y2="700" stroke="#f6c99d" stroke-width="8"/>
  <line x1="620" y1="760" x2="980" y2="760" stroke="#f6c99d" stroke-width="6" opacity="0.75"/>
  <ellipse cx="800" cy="840" rx="260" ry="30" fill="#f2c89d" opacity="0.6"/>
</svg>
