<svg xmlns="http://www.w3.org/2000/svg" width="1600" height="900" viewBox="0 0 1600 900" role="img" aria-label="Illustration démolition Géopolitique du ketchup">
  <defs>
    <linearGradient id="bgDarkK" x1="0" y1="0" x2="0" y2="1">
      <stop offset="0%" stop-color="#0f1228"/>
      <stop offset="100%" stop-color="#1c1231"/>
    </linearGradient>
    <linearGradient id="moonDarkK" x1="0" y1="0" x2="0" y2="1">
      <stop offset="0%" stop-color="#a8ddff"/>
      <stop offset="100%" stop-color="#5b7db3"/>
    </linearGradient>
    <linearGradient id="bottleDark" x1="0" y1="0" x2="0" y2="1">
      <stop offset="0%" stop-color="#101b35"/>
      <stop offset="100%" stop-color="#060f24"/>
    </linearGradient>
  </defs>

  <rect width="1600" height="900" fill="url(#bgDarkK)"/>
  <circle cx="800" cy="390" r="285" fill="url(#moonDarkK)"/>

  <rect x="680" y="230" width="240" height="430" rx="95" fill="url(#bottleDark)"/>
  <rect x="735" y="170" width="130" height="90" rx="25" fill="#1a2c4d"/>
  <rect x="750" y="315" width="100" height="190" rx="18" fill="#2b3759"/>
  <path d="M772 393h56" stroke="#87abd4" stroke-width="7" opacity="0.45"/>
  <path d="M772 433h56" stroke="#87abd4" stroke-width="7" opacity="0.45"/>

  <polygon points="510,710 710,620 900,620 1090,710" fill="#0d1833"/>
  <polygon points="370,780 600,700 800,738 1030,695 1250,780" fill="#232040"/>

  <rect x="260" y="185" width="270" height="22" fill="#5d76a3" opacity="0.35"/>
  <rect x="1070" y="220" width="270" height="20" fill="#5d76a3" opacity="0.35"/>
  <ellipse cx="800" cy="822" rx="300" ry="30" fill="#6884b2" opacity="0.23"/>
</svg>
