<svg xmlns="http://www.w3.org/2000/svg" width="1600" height="900" viewBox="0 0 1600 900" role="img" aria-label="Illustration démolition Géopolitique du ketchup">
  <rect width="1600" height="900" fill="#12131d"/>
  <rect x="56" y="56" width="1488" height="788" rx="22" fill="#1c1e2d"/>
  
<polygon points="840,120 1360,180 1300,450 900,500 760,300" fill="#25304d"/>
<line x1="910" y1="220" x2="1230" y2="260" stroke="#f2b3b3" stroke-width="6" opacity="0.5"/>
<line x1="880" y1="320" x2="1200" y2="360" stroke="#f2b3b3" stroke-width="6" opacity="0.5"/>
<polygon points="260,220 420,220 450,300 450,650 230,650 230,300" fill="#3d2036"/>
<polygon points="300,150 380,150 395,220 285,220" fill="#25304d"/>
<polygon points="245,350 435,350 435,570 245,570" fill="#7a1f2b"/>
<path d="M340 570 L390 760 L310 760 Z" fill="#9a3b2f"/>
<path d="M390 760 L460 860 L280 860 L310 760 Z" fill="#7a1f2b" opacity="0.85"/>

</svg>
