<svg xmlns="http://www.w3.org/2000/svg" width="1600" height="900" viewBox="0 0 1600 900" role="img" aria-label="Illustration éloge Géopolitique du ketchup - port industriel">
  <defs>
    <linearGradient id="skyGKE" x1="0" y1="0" x2="0" y2="1">
      <stop offset="0%" stop-color="#f8dfb8"/>
      <stop offset="48%" stop-color="#f0b487"/>
      <stop offset="100%" stop-color="#df876a"/>
    </linearGradient>
    <linearGradient id="sunGKE" x1="0" y1="0" x2="0" y2="1">
      <stop offset="0%" stop-color="#ffc37a"/>
      <stop offset="100%" stop-color="#eb7166"/>
    </linearGradient>
  </defs>

  <rect width="1600" height="900" fill="url(#skyGKE)"/>
  <circle cx="1130" cy="250" r="150" fill="url(#sunGKE)"/>

  <g opacity="0.38">
    <rect x="0" y="190" width="1600" height="22" fill="#f6c18b"/>
    <rect x="0" y="242" width="1600" height="18" fill="#ef9f72"/>
    <rect x="0" y="294" width="1600" height="16" fill="#e57f6c"/>
  </g>

  <rect x="0" y="500" width="1600" height="400" fill="#21496f"/>
  <rect x="0" y="560" width="1600" height="340" fill="#183f64"/>

  <g>
    <rect x="140" y="430" width="190" height="170" fill="#2e5783"/>
    <rect x="350" y="390" width="180" height="210" fill="#244c76"/>
    <rect x="540" y="445" width="160" height="155" fill="#345d8a"/>
    <rect x="760" y="415" width="160" height="185" fill="#1b446b"/>
    <rect x="980" y="390" width="170" height="210" fill="#2a527e"/>
    <rect x="1170" y="440" width="160" height="160" fill="#365f8d"/>

    <polygon points="260,430 330,340 360,340 300,430" fill="#1a3c61"/>
    <rect x="325" y="340" width="14" height="120" fill="#1a3c61"/>
    <line x1="332" y1="360" x2="420" y2="360" stroke="#1a3c61" stroke-width="8"/>

    <polygon points="1110,390 1185,300 1215,300 1150,390" fill="#1a3c61"/>
    <rect x="1180" y="300" width="14" height="120" fill="#1a3c61"/>
    <line x1="1187" y1="330" x2="1285" y2="330" stroke="#1a3c61" stroke-width="8"/>
  </g>

  <g>
    <rect x="640" y="350" width="130" height="240" rx="42" fill="#113452"/>
    <rect x="672" y="315" width="66" height="45" rx="12" fill="#2a527d"/>
    <rect x="664" y="430" width="82" height="110" rx="14" fill="#f4be8b"/>
    <rect x="684" y="448" width="42" height="76" rx="8" fill="#24507a"/>
  </g>

  <path d="M0 725 C220 700 400 760 620 725 C860 685 1060 765 1300 730 C1430 710 1510 720 1600 712" stroke="#f4c699" stroke-width="10" fill="none" opacity="0.72"/>
  <path d="M0 790 C240 765 430 820 670 785 C890 752 1100 830 1360 798 C1460 785 1540 790 1600 785" stroke="#f4c699" stroke-width="8" fill="none" opacity="0.62"/>
  <ellipse cx="760" cy="845" rx="300" ry="32" fill="#f2c89d" opacity="0.55"/>
</svg>
