<svg xmlns="http://www.w3.org/2000/svg" width="1600" height="900" viewBox="0 0 1600 900" role="img" aria-label="Illustration éloge Géopolitique du ketchup">
  <rect width="1600" height="900" fill="#f5f8ff"/>
  <rect x="56" y="56" width="1488" height="788" rx="22" fill="#eaf1ff"/>
  
<ellipse cx="1110" cy="280" rx="260" ry="180" fill="#c8e1ff"/>
<path d="M880 280h460" stroke="#2f4f9d" stroke-width="8"/>
<path d="M930 220c120 70 220 70 340 0" stroke="#2f4f9d" stroke-width="8" fill="none" opacity="0.5"/>
<path d="M930 340c120-70 220-70 340 0" stroke="#2f4f9d" stroke-width="8" fill="none" opacity="0.5"/>
<polygon points="260,250 420,250 460,330 460,690 220,690 220,330" fill="#f6d58f"/>
<polygon points="300,170 380,170 400,250 280,250" fill="#8bb8ff"/>
<polygon points="250,360 430,360 430,590 250,590" fill="#7dd3c7" opacity="0.9"/>
<polyline points="250,475 305,430 340,470 385,430 430,470" stroke="#2f4f9d" stroke-width="10" fill="none"/>

</svg>
