<svg xmlns="http://www.w3.org/2000/svg" width="1600" height="900" viewBox="0 0 1600 900" role="img" aria-label="Illustration démolition Géopolitique du ketchup - port industriel de nuit">
  <defs>
    <linearGradient id="skyGKD" x1="0" y1="0" x2="0" y2="1">
      <stop offset="0%" stop-color="#251f45"/>
      <stop offset="48%" stop-color="#273a63"/>
      <stop offset="100%" stop-color="#335b8e"/>
    </linearGradient>
    <linearGradient id="moonGKD" x1="0" y1="0" x2="0" y2="1">
      <stop offset="0%" stop-color="#e7f9ff"/>
      <stop offset="100%" stop-color="#8cc3ef"/>
    </linearGradient>
  </defs>

  <rect width="1600" height="900" fill="url(#skyGKD)"/>
  <circle cx="430" cy="230" r="150" fill="url(#moonGKD)"/>

  <g opacity="0.42">
    <rect x="0" y="185" width="1600" height="18" fill="#9bc8ee"/>
    <rect x="0" y="235" width="1600" height="16" fill="#84aed6"/>
    <rect x="0" y="285" width="1600" height="14" fill="#7095bf"/>
  </g>

  <rect x="0" y="500" width="1600" height="400" fill="#153655"/>
  <rect x="0" y="565" width="1600" height="335" fill="#102c4a"/>

  <g>
    <rect x="120" y="450" width="170" height="150" fill="#2a527e"/>
    <rect x="320" y="405" width="200" height="195" fill="#1f456f"/>
    <rect x="540" y="455" width="150" height="145" fill="#355f8c"/>
    <rect x="750" y="425" width="170" height="175" fill="#173e65"/>
    <rect x="960" y="395" width="180" height="205" fill="#274f7b"/>
    <rect x="1165" y="445" width="170" height="155" fill="#315b88"/>
    <rect x="1360" y="470" width="130" height="130" fill="#214770"/>

    <polygon points="260,450 340,350 370,350 305,450" fill="#12375a"/>
    <rect x="337" y="350" width="14" height="120" fill="#12375a"/>
    <line x1="344" y1="380" x2="450" y2="380" stroke="#12375a" stroke-width="8"/>

    <polygon points="1030,395 1110,295 1140,295 1075,395" fill="#12375a"/>
    <rect x="1107" y="295" width="14" height="125" fill="#12375a"/>
    <line x1="1114" y1="330" x2="1240" y2="330" stroke="#12375a" stroke-width="8"/>
  </g>

  <g>
    <rect x="820" y="345" width="120" height="245" rx="40" fill="#0d304f"/>
    <rect x="850" y="312" width="60" height="40" rx="10" fill="#2a517d"/>
    <rect x="843" y="422" width="74" height="115" rx="12" fill="#a9d8ff"/>
    <rect x="861" y="442" width="38" height="76" rx="8" fill="#214a74"/>
  </g>

  <path d="M0 730 C220 705 400 765 620 730 C860 690 1060 770 1300 735 C1430 715 1510 725 1600 718" stroke="#b2dbff" stroke-width="10" fill="none" opacity="0.72"/>
  <path d="M0 795 C240 770 430 825 670 790 C890 757 1100 835 1360 803 C1460 790 1540 795 1600 790" stroke="#b2dbff" stroke-width="8" fill="none" opacity="0.62"/>
  <ellipse cx="890" cy="846" rx="300" ry="32" fill="#9fcdf1" opacity="0.52"/>
</svg>
