<svg xmlns="http://www.w3.org/2000/svg" width="1600" height="900" viewBox="0 0 1600 900" role="img" aria-label="Illustration démolition Li Po - paysage de montagnes nocturnes">
  <defs>
    <linearGradient id="skyLPD" x1="0" y1="0" x2="0" y2="1">
      <stop offset="0%" stop-color="#261f47"/>
      <stop offset="55%" stop-color="#27385f"/>
      <stop offset="100%" stop-color="#325889"/>
    </linearGradient>
    <linearGradient id="moonLPD" x1="0" y1="0" x2="0" y2="1">
      <stop offset="0%" stop-color="#e4f8ff"/>
      <stop offset="100%" stop-color="#88c2ef"/>
    </linearGradient>
    <linearGradient id="mountainBackLPD" x1="0" y1="0" x2="1" y2="1">
      <stop offset="0%" stop-color="#6b8fbc"/>
      <stop offset="100%" stop-color="#365984"/>
    </linearGradient>
    <linearGradient id="mountainFrontLPD" x1="0" y1="0" x2="1" y2="1">
      <stop offset="0%" stop-color="#1c3f66"/>
      <stop offset="100%" stop-color="#0c1f3b"/>
    </linearGradient>
  </defs>

  <rect width="1600" height="900" fill="url(#skyLPD)"/>
  <circle cx="980" cy="245" r="150" fill="url(#moonLPD)"/>

  <g opacity="0.6">
    <rect x="160" y="175" width="260" height="16" fill="#8dbce8"/>
    <rect x="470" y="145" width="230" height="14" fill="#8dbce8"/>
    <rect x="1180" y="190" width="290" height="16" fill="#8dbce8"/>
  </g>

  <g>
    <polygon points="80,575 280,340 450,575" fill="url(#mountainBackLPD)"/>
    <polygon points="300,595 540,305 740,595" fill="#597da9"/>
    <polygon points="610,575 860,265 1080,575" fill="#4f729f"/>
    <polygon points="900,605 1160,315 1390,605" fill="#5f83b0"/>
    <polygon points="1220,575 1420,355 1560,575" fill="#6f95bf"/>
  </g>

  <g>
    <path d="M0 635 C180 605 300 655 450 625 C620 590 780 655 950 625 C1100 600 1260 655 1600 625 L1600 765 L0 765 Z" fill="#3a527e" opacity="0.7"/>
    <path d="M0 700 C180 670 330 710 490 680 C660 645 820 710 1000 680 C1170 650 1320 700 1600 680 L1600 830 L0 830 Z" fill="#2d476f" opacity="0.78"/>
  </g>

  <g>
    <polygon points="260,770 500,480 700,770" fill="url(#mountainFrontLPD)"/>
    <polygon points="560,790 860,430 1120,790" fill="#15375e"/>
    <polygon points="950,770 1220,510 1460,770" fill="#244a75"/>
    <polygon points="0,900 0,770 240,700 460,770 700,710 910,790 1150,730 1400,800 1600,770 1600,900" fill="#0f2746"/>
  </g>

  <g>
    <path d="M280 685 C360 650 430 670 510 645 C570 625 650 660 730 630" stroke="#a8d6ff" stroke-width="10" fill="none" opacity="0.85"/>
    <path d="M870 715 C940 685 1020 700 1090 675 C1165 650 1230 680 1315 650" stroke="#a8d6ff" stroke-width="8" fill="none" opacity="0.78"/>
  </g>

  <ellipse cx="890" cy="840" rx="320" ry="40" fill="#97c5ec" opacity="0.52"/>
</svg>
