<svg xmlns="http://www.w3.org/2000/svg" width="1600" height="900" viewBox="0 0 1600 900" role="img" aria-label="Illustration démolition Li Po">
  <defs>
    <linearGradient id="bgDarkLiPo" x1="0" y1="0" x2="0" y2="1">
      <stop offset="0%" stop-color="#0f1328"/>
      <stop offset="100%" stop-color="#17122f"/>
    </linearGradient>
    <linearGradient id="moonDarkLiPo" x1="0" y1="0" x2="0" y2="1">
      <stop offset="0%" stop-color="#8fd2ff"/>
      <stop offset="100%" stop-color="#4c79b4"/>
    </linearGradient>
    <linearGradient id="castleDarkLiPo" x1="0" y1="0" x2="1" y2="1">
      <stop offset="0%" stop-color="#0f1b34"/>
      <stop offset="100%" stop-color="#2b2c56"/>
    </linearGradient>
  </defs>

  <rect width="1600" height="900" fill="url(#bgDarkLiPo)"/>
  <circle cx="800" cy="420" r="280" fill="url(#moonDarkLiPo)"/>
  <rect x="540" y="220" width="520" height="420" rx="18" fill="url(#castleDarkLiPo)"/>

  <rect x="700" y="255" width="200" height="315" fill="#0b1530"/>
  <polygon points="700,255 800,160 900,255" fill="#1e2e55"/>

  <rect x="620" y="330" width="85" height="240" fill="#111f3f"/>
  <polygon points="620,330 662,265 705,330" fill="#2d3f6a"/>

  <rect x="900" y="345" width="90" height="225" fill="#132243"/>
  <polygon points="900,345 945,280 990,345" fill="#324878"/>

  <rect x="770" y="440" width="60" height="130" fill="#060d1d"/>

  <polygon points="500,640 755,500 885,500 1120,640" fill="#0b1732"/>
  <polygon points="420,760 620,660 790,700 980,640 1200,760" fill="#1e2142"/>

  <rect x="240" y="140" width="300" height="26" fill="#4b5a84" opacity="0.45"/>
  <rect x="1060" y="170" width="320" height="24" fill="#4b5a84" opacity="0.45"/>
  <ellipse cx="800" cy="820" rx="280" ry="30" fill="#5d7aa8" opacity="0.28"/>
</svg>
