<svg xmlns="http://www.w3.org/2000/svg" width="1600" height="900" viewBox="0 0 1600 900" role="img" aria-label="Illustration éloge Li Po - paysage de montagnes et nuages">
  <defs>
    <linearGradient id="skyLPE" x1="0" y1="0" x2="0" y2="1">
      <stop offset="0%" stop-color="#f8e1b9"/>
      <stop offset="50%" stop-color="#f3bc8d"/>
      <stop offset="100%" stop-color="#e78f70"/>
    </linearGradient>
    <linearGradient id="sunLPE" x1="0" y1="0" x2="0" y2="1">
      <stop offset="0%" stop-color="#ffbe7a"/>
      <stop offset="100%" stop-color="#ef6d64"/>
    </linearGradient>
    <linearGradient id="mountainBackLPE" x1="0" y1="0" x2="1" y2="1">
      <stop offset="0%" stop-color="#7697bf"/>
      <stop offset="100%" stop-color="#3f608c"/>
    </linearGradient>
    <linearGradient id="mountainFrontLPE" x1="0" y1="0" x2="1" y2="1">
      <stop offset="0%" stop-color="#2f537d"/>
      <stop offset="100%" stop-color="#173457"/>
    </linearGradient>
  </defs>

  <rect width="1600" height="900" fill="url(#skyLPE)"/>
  <circle cx="980" cy="255" r="145" fill="url(#sunLPE)" opacity="0.95"/>

  <g opacity="0.45">
    <ellipse cx="320" cy="210" rx="130" ry="38" fill="#ef8d69"/>
    <ellipse cx="1320" cy="190" rx="150" ry="42" fill="#ef8868"/>
    <ellipse cx="690" cy="170" rx="110" ry="30" fill="#f3a173"/>
  </g>

  <g>
    <polygon points="80,560 280,330 450,560" fill="url(#mountainBackLPE)"/>
    <polygon points="300,580 540,290 740,580" fill="#5f80ab"/>
    <polygon points="610,560 860,250 1080,560" fill="#4f719f"/>
    <polygon points="900,590 1160,300 1390,590" fill="#5e7eab"/>
    <polygon points="1220,560 1420,345 1560,560" fill="#7494bc"/>
  </g>

  <g>
    <path d="M0 630 C180 600 300 650 450 620 C620 585 780 650 950 620 C1100 595 1260 650 1600 620 L1600 760 L0 760 Z" fill="#e79a76" opacity="0.55"/>
    <path d="M0 690 C180 660 330 700 490 670 C660 635 820 700 1000 670 C1170 640 1320 690 1600 670 L1600 820 L0 820 Z" fill="#dc886f" opacity="0.58"/>
  </g>

  <g>
    <polygon points="260,760 500,470 700,760" fill="url(#mountainFrontLPE)"/>
    <polygon points="560,780 860,420 1120,780" fill="#21486f"/>
    <polygon points="950,760 1220,500 1460,760" fill="#2f5781"/>
    <polygon points="0,900 0,760 240,690 460,760 700,700 910,780 1150,720 1400,790 1600,760 1600,900" fill="#173756"/>
  </g>

  <g>
    <path d="M280 675 C360 640 430 660 510 635 C570 615 650 650 730 620" stroke="#f2c499" stroke-width="10" fill="none" opacity="0.8"/>
    <path d="M870 705 C940 675 1020 690 1090 665 C1165 640 1230 670 1315 640" stroke="#f2c499" stroke-width="8" fill="none" opacity="0.72"/>
  </g>

  <ellipse cx="890" cy="835" rx="320" ry="40" fill="#f7d8ac" opacity="0.58"/>
</svg>
