<svg xmlns="http://www.w3.org/2000/svg" width="1600" height="900" viewBox="0 0 1600 900" role="img" aria-label="Illustration démolition Li Po">
  <defs>
    <linearGradient id="bgDarkLiPo" x1="0" y1="0" x2="0" y2="1">
      <stop offset="0%" stop-color="#1b1a3b"/>
      <stop offset="45%" stop-color="#1a2345"/>
      <stop offset="100%" stop-color="#233667"/>
    </linearGradient>
    <linearGradient id="moonDarkLiPo" x1="0" y1="0" x2="0" y2="1">
      <stop offset="0%" stop-color="#d8f5ff"/>
      <stop offset="55%" stop-color="#93d4ff"/>
      <stop offset="100%" stop-color="#6f9ed8"/>
    </linearGradient>
    <linearGradient id="towerDarkL" x1="0" y1="0" x2="1" y2="1">
      <stop offset="0%" stop-color="#0f1f3e"/>
      <stop offset="100%" stop-color="#223f6d"/>
    </linearGradient>
    <linearGradient id="towerDarkR" x1="0" y1="0" x2="1" y2="1">
      <stop offset="0%" stop-color="#334c7d"/>
      <stop offset="100%" stop-color="#162b4d"/>
    </linearGradient>
    <pattern id="grainDark" width="8" height="8" patternUnits="userSpaceOnUse">
      <circle cx="1" cy="2" r="0.8" fill="#d6f3ff" opacity="0.18"/>
      <circle cx="5" cy="6" r="0.7" fill="#7ba2d7" opacity="0.14"/>
    </pattern>
  </defs>

  <rect width="1600" height="900" fill="url(#bgDarkLiPo)"/>
  <circle cx="800" cy="430" r="315" fill="url(#moonDarkLiPo)"/>

  <g opacity="0.38">
    <rect x="490" y="230" width="620" height="24" fill="#afdcff"/>
    <rect x="490" y="290" width="620" height="20" fill="#9dc8f3"/>
    <rect x="490" y="350" width="620" height="18" fill="#8caed8"/>
    <rect x="490" y="410" width="620" height="16" fill="#7f9ec9"/>
    <rect x="490" y="470" width="620" height="14" fill="#7392bc"/>
  </g>

  <g>
    <rect x="500" y="220" width="600" height="430" rx="20" fill="url(#towerDarkL)"/>
    <polygon points="650,620 800,450 950,620" fill="#0a1730"/>
    <polygon points="520,670 800,505 1080,670" fill="#12325a"/>

    <rect x="730" y="255" width="140" height="305" fill="#0d2140"/>
    <polygon points="730,255 800,178 870,255" fill="#244370"/>

    <rect x="630" y="340" width="95" height="230" fill="#18335a"/>
    <polygon points="630,340 678,272 725,340" fill="#3a5d90"/>

    <rect x="875" y="355" width="95" height="215" fill="#1b3660"/>
    <polygon points="875,355 922,292 970,355" fill="#4a71a2"/>

    <rect x="775" y="445" width="50" height="115" fill="#050f23"/>
    <rect x="780" y="455" width="40" height="34" fill="#9fd2ff" opacity="0.8"/>

    <rect x="770" y="280" width="12" height="38" fill="#afe4ff"/>
    <rect x="818" y="308" width="10" height="34" fill="#afe4ff"/>
    <rect x="660" y="382" width="9" height="32" fill="#afe4ff"/>
    <rect x="920" y="395" width="9" height="28" fill="#afe4ff"/>

    <polygon points="520,670 650,620 650,685" fill="url(#towerDarkR)"/>
    <polygon points="1080,670 950,620 950,685" fill="#10284a"/>
  </g>

  <g opacity="0.64">
    <rect x="240" y="170" width="290" height="20" fill="#8cb8e9"/>
    <rect x="1070" y="210" width="300" height="18" fill="#8cb8e9"/>
    <ellipse cx="250" cy="700" rx="180" ry="58" fill="#3a4d7e"/>
    <ellipse cx="1350" cy="710" rx="185" ry="62" fill="#3a4d7e"/>
    <ellipse cx="800" cy="785" rx="280" ry="46" fill="#9dcef7" opacity="0.8"/>
  </g>

  <path d="M90 760 C250 705 390 735 520 705 C620 680 710 730 800 705 C900 675 1030 730 1140 705 C1270 675 1380 710 1510 760 L1510 900 L90 900 Z" fill="#273c6a" opacity="0.62"/>
  <rect width="1600" height="900" fill="url(#grainDark)"/>
</svg>
