<svg xmlns="http://www.w3.org/2000/svg" width="1600" height="900" viewBox="0 0 1600 900" role="img" aria-label="Illustration éloge Michel Houellebecq - paysage urbain">
  <defs>
    <linearGradient id="skyMHE" x1="0" y1="0" x2="0" y2="1">
      <stop offset="0%" stop-color="#f6deba"/>
      <stop offset="48%" stop-color="#efb486"/>
      <stop offset="100%" stop-color="#de866b"/>
    </linearGradient>
    <linearGradient id="sunMHE" x1="0" y1="0" x2="0" y2="1">
      <stop offset="0%" stop-color="#ffbe78"/>
      <stop offset="100%" stop-color="#e96e65"/>
    </linearGradient>
    <pattern id="windowsMHE" width="24" height="18" patternUnits="userSpaceOnUse">
      <rect x="3" y="3" width="5" height="5" fill="#f7c796"/>
      <rect x="13" y="4" width="5" height="5" fill="#f7c796" opacity="0.8"/>
      <rect x="8" y="11" width="5" height="5" fill="#f7c796" opacity="0.7"/>
    </pattern>
  </defs>

  <rect width="1600" height="900" fill="url(#skyMHE)"/>
  <circle cx="380" cy="260" r="165" fill="url(#sunMHE)"/>

  <g opacity="0.35">
    <rect x="0" y="200" width="1600" height="28" fill="#f4c18e"/>
    <rect x="0" y="252" width="1600" height="24" fill="#ee9f73"/>
    <rect x="0" y="304" width="1600" height="20" fill="#e57f6d"/>
  </g>

  <g>
    <rect x="0" y="520" width="1600" height="380" fill="#22466d"/>
    <rect x="0" y="560" width="1600" height="340" fill="#1b3e64"/>

    <rect x="70" y="430" width="120" height="260" fill="#355d8a"/>
    <rect x="210" y="360" width="140" height="330" fill="#264d78"/>
    <rect x="370" y="300" width="180" height="390" fill="#183957"/>
    <rect x="570" y="385" width="145" height="305" fill="#365f8e"/>
    <rect x="735" y="335" width="165" height="355" fill="#21466e"/>
    <rect x="920" y="290" width="190" height="400" fill="#133452"/>
    <rect x="1130" y="370" width="150" height="320" fill="#2a527f"/>
    <rect x="1300" y="445" width="110" height="245" fill="#3b6594"/>

    <rect x="82" y="445" width="96" height="215" fill="url(#windowsMHE)" opacity="0.6"/>
    <rect x="225" y="375" width="110" height="285" fill="url(#windowsMHE)" opacity="0.58"/>
    <rect x="385" y="320" width="150" height="340" fill="url(#windowsMHE)" opacity="0.53"/>
    <rect x="585" y="402" width="115" height="255" fill="url(#windowsMHE)" opacity="0.6"/>
    <rect x="748" y="352" width="138" height="306" fill="url(#windowsMHE)" opacity="0.56"/>
    <rect x="935" y="307" width="160" height="348" fill="url(#windowsMHE)" opacity="0.48"/>
    <rect x="1144" y="388" width="122" height="266" fill="url(#windowsMHE)" opacity="0.6"/>
    <rect x="1312" y="460" width="86" height="195" fill="url(#windowsMHE)" opacity="0.58"/>
  </g>

  <path d="M0 740 C260 700 420 760 620 720 C830 680 1030 760 1210 730 C1360 705 1460 720 1600 700 L1600 900 L0 900 Z" fill="#133655"/>
  <path d="M0 800 C260 770 450 810 660 775 C900 735 1100 820 1320 790 C1450 770 1530 780 1600 770 L1600 900 L0 900 Z" fill="#0c2c49"/>
  <ellipse cx="540" cy="840" rx="280" ry="34" fill="#f0c294" opacity="0.44"/>
</svg>
