<svg xmlns="http://www.w3.org/2000/svg" width="1600" height="900" viewBox="0 0 1600 900" role="img" aria-label="Illustration démolition Michel Houellebecq - périphérie urbaine nocturne">
  <defs>
    <linearGradient id="skyMHD" x1="0" y1="0" x2="0" y2="1">
      <stop offset="0%" stop-color="#241d43"/>
      <stop offset="48%" stop-color="#25365f"/>
      <stop offset="100%" stop-color="#325a8c"/>
    </linearGradient>
    <linearGradient id="moonMHD" x1="0" y1="0" x2="0" y2="1">
      <stop offset="0%" stop-color="#e6f8ff"/>
      <stop offset="100%" stop-color="#8ac1ee"/>
    </linearGradient>
    <pattern id="windowsMHD" width="24" height="18" patternUnits="userSpaceOnUse">
      <rect x="3" y="3" width="5" height="5" fill="#9ed3ff"/>
      <rect x="13" y="4" width="5" height="5" fill="#9ed3ff" opacity="0.8"/>
      <rect x="8" y="11" width="5" height="5" fill="#9ed3ff" opacity="0.7"/>
    </pattern>
  </defs>

  <rect width="1600" height="900" fill="url(#skyMHD)"/>
  <circle cx="1240" cy="220" r="170" fill="url(#moonMHD)"/>

  <g opacity="0.4">
    <rect x="0" y="190" width="1600" height="22" fill="#96c5ef"/>
    <rect x="0" y="240" width="1600" height="18" fill="#7ea9d6"/>
    <rect x="0" y="290" width="1600" height="15" fill="#6a8fbd"/>
  </g>

  <g>
    <rect x="0" y="520" width="1600" height="380" fill="#142f51"/>
    <rect x="0" y="565" width="1600" height="335" fill="#102847"/>

    <rect x="90" y="445" width="130" height="245" fill="#284a74"/>
    <rect x="250" y="355" width="160" height="335" fill="#183a5a"/>
    <rect x="440" y="300" width="185" height="390" fill="#0f2d48"/>
    <rect x="655" y="395" width="150" height="295" fill="#2f5683"/>
    <rect x="830" y="345" width="170" height="345" fill="#1f456e"/>
    <rect x="1025" y="280" width="205" height="410" fill="#0b243e"/>
    <rect x="1260" y="380" width="170" height="310" fill="#28507e"/>

    <rect x="104" y="460" width="102" height="205" fill="url(#windowsMHD)" opacity="0.7"/>
    <rect x="266" y="370" width="128" height="280" fill="url(#windowsMHD)" opacity="0.66"/>
    <rect x="458" y="315" width="149" height="332" fill="url(#windowsMHD)" opacity="0.58"/>
    <rect x="669" y="410" width="122" height="246" fill="url(#windowsMHD)" opacity="0.68"/>
    <rect x="846" y="360" width="138" height="286" fill="url(#windowsMHD)" opacity="0.62"/>
    <rect x="1045" y="295" width="165" height="340" fill="url(#windowsMHD)" opacity="0.55"/>
    <rect x="1276" y="395" width="138" height="255" fill="url(#windowsMHD)" opacity="0.68"/>
  </g>

  <path d="M0 745 C280 700 450 765 660 725 C870 685 1060 765 1260 730 C1400 705 1490 720 1600 705 L1600 900 L0 900 Z" fill="#0c2847"/>
  <path d="M0 805 C290 770 480 815 700 780 C940 742 1130 825 1360 795 C1470 780 1540 785 1600 780 L1600 900 L0 900 Z" fill="#091f3a"/>
  <ellipse cx="1020" cy="842" rx="320" ry="34" fill="#99c8ee" opacity="0.42"/>
</svg>
